<?xml version="1.0" standalone="no"?><!DOCTYPE svg PUBLIC "-//W3C//DTD SVG 1.1//EN" "http://www.w3.org/Graphics/SVG/1.1/DTD/svg11.dtd"><svg t="1607241708914" class="icon" viewBox="0 0 1024 1024" version="1.1" xmlns="http://www.w3.org/2000/svg" p-id="8081" width="32" height="32" xmlns:xlink="http://www.w3.org/1999/xlink"><defs><style type="text/css"></style></defs><path d="M202.678857 256H160a32 32 0 0 1 0-64h704a32 32 0 1 1 0 64H266.678857v565.321143a53.321143 53.321143 0 0 0 53.321143 53.357714h384a53.394286 53.394286 0 0 0 53.321143-53.357714V352a32 32 0 0 1 64 0v469.321143a117.321143 117.321143 0 0 1-117.321143 117.357714H320a117.321143 117.321143 0 0 1-117.321143-117.357714V256z m224-106.678857a32 32 0 1 1 0-64h170.642286a32 32 0 1 1 0 64h-170.642286z m-32 288a32 32 0 0 1 64 0v256a32 32 0 1 1-64 0v-256z m170.642286 0a32 32 0 0 1 64 0v256a32 32 0 0 1-64 0v-256z" p-id="8082" fill="#ffffff"></path></svg>