<?xml version="1.0" standalone="no"?><!DOCTYPE svg PUBLIC "-//W3C//DTD SVG 1.1//EN" "http://www.w3.org/Graphics/SVG/1.1/DTD/svg11.dtd"><svg t="1646382932361" class="icon" viewBox="0 0 1024 1024" version="1.1" xmlns="http://www.w3.org/2000/svg" p-id="7135" xmlns:xlink="http://www.w3.org/1999/xlink" width="48" height="48"><defs><style type="text/css"></style></defs><path d="M811.65 148.35A286.15 286.15 0 0 0 608 64H160a32 32 0 0 0-32 32v832a32 32 0 0 0 32 32h256a32 32 0 0 0 32-32V384h96a32 32 0 0 1 32 32v50.75l-54.63 54.62a32 32 0 0 0-7.08 34.51l41.11 102.79a286.68 286.68 0 0 1 20.6 107V928a32 32 0 0 0 32 32h256a32 32 0 0 0 32-32V765.63a350.33 350.33 0 0 0-25.18-130.73l-33.27-83.19 49.08-49.08A32 32 0 0 0 896 480V352a286.15 286.15 0 0 0-84.35-203.65z m-16.78 80.29A222.38 222.38 0 0 0 672 192H416a32 32 0 0 0-32 32v672h-64V128h288c78 0 146.74 40.05 186.87 100.64zM192 128h64v768h-64z m512 338.75l-54.63 54.62a32 32 0 0 0-7.08 34.51l41.11 102.79a286.68 286.68 0 0 1 20.6 107V896h-64V765.63a350.33 350.33 0 0 0-25.18-130.73l-33.27-83.19 49.08-49.08A32 32 0 0 0 640 480v-64a95.56 95.56 0 0 0-5.49-32H672a32 32 0 0 1 32 32z m128 0l-54.63 54.62a32 32 0 0 0-7.08 34.51l41.11 102.79a286.68 286.68 0 0 1 20.6 107V896h-64V765.63a350.33 350.33 0 0 0-25.18-130.73l-33.27-83.19 49.08-49.08A32 32 0 0 0 768 480v-64a96.11 96.11 0 0 0-96-96H448v-64h224c88.22 0 160 71.78 160 160z" fill="#5C5C66" p-id="7136"></path></svg>