<?xml version="1.0" standalone="no"?><!DOCTYPE svg PUBLIC "-//W3C//DTD SVG 1.1//EN" "http://www.w3.org/Graphics/SVG/1.1/DTD/svg11.dtd"><svg t="1607240419818" class="icon" viewBox="0 0 1024 1024" version="1.1" xmlns="http://www.w3.org/2000/svg" p-id="7330" xmlns:xlink="http://www.w3.org/1999/xlink" width="48" height="48"><defs><style type="text/css"></style></defs><path d="M961.095442 280.826047v626.545116a113.402047 113.402047 0 0 1-113.402047 113.390139H167.293023a113.402047 113.402047 0 0 1-113.390139-113.402046V113.568744A113.402047 113.402047 0 0 1 167.293023 0.166698h513.14307l280.659349 280.659349z" fill="#84C6EB" p-id="7331"></path><path d="M685.818047 167.435907V0.166698l280.659348 280.659349H799.220093a113.402047 113.402047 0 0 1-113.402046-113.39014z" fill="#53A0CC" p-id="7332"></path><path d="M512.881116 738.685023c-84.658605-0.071442-153.957209-67.333953-156.576744-151.933023-2.607628-84.622884 62.428279-156.029023 146.908279-161.315721 84.491907-5.286698 157.922233 57.451163 165.876093 141.728744a28.350512 28.350512 0 0 1-7.656186 22.682791 28.350512 28.350512 0 0 1-21.551628 9.644651H416.791814a97.803907 97.803907 0 0 0 178.033116 37.697488l48.75907 32.601303a157.053023 157.053023 0 0 1-130.690977 68.893767z m-87.873488-199.870511h176.616186a98.089674 98.089674 0 0 0-176.628093 0z" fill="#FFFFFF" p-id="7333"></path><path d="M333.716837 689.068651c-48.770977 0-85.051535-10.47814-91.564651-35.149395-16.169674-53.867163 103.18586-109.996651 155.350326-131.548279l10.775814 26.076279c-111.985116 46.496744-141.752558 85.051535-138.918698 96.958511 5.667721 18.432 102.054698 28.350512 259.119628-19.277395 157.053023-47.627907 231.328744-109.710884 226.792186-128.142884-4.250791-13.323907-58.677581-24.373581-162.434977-4.524651l-5.39386-28.350511c53.295628-10.216186 178.890419-28.350512 194.762418 24.087814 15.883907 52.450233-111.687442 123.332465-245.509953 163.006511a751.270698 751.270698 0 0 1-202.978233 36.864z" fill="#FFFFFF" opacity=".6" p-id="7334"></path></svg>